<?xml version="1.0" encoding="UTF-8"?>
<svg xmlns="http://www.w3.org/2000/svg" id="Layer_1" data-name="Layer 1" viewBox="0 0 24 24">
  <path d="m21,6.5c0-1.339,1.919-2.277,2.658-2.525l-.316-.949c-.137.046-3.342,1.141-3.342,3.475,0,2.032,1.763,9.901,1.835,10.224.104.518.165,1.182.165,1.776,0,.827-.673,1.5-1.5,1.5h-3.5V2.5c0-1.379-1.121-2.5-2.5-2.5H2.5C1.121,0,0,1.121,0,2.5v21.5h17v-3h3.5c1.379,0,2.5-1.121,2.5-2.5,0-.667-.067-1.386-.187-1.983-.019-.081-1.813-8.095-1.813-10.017ZM2.5,1h12c.827,0,1.5.673,1.5,1.5v7.5h-4v-.5c0-1.039-.456-1.974-1.177-2.616l2.531-2.531-.707-.707-2.677,2.677c-.447-.208-.945-.324-1.469-.324-1.93,0-3.5,1.57-3.5,3.5v.5H1V2.5c0-.827.673-1.5,1.5-1.5Zm8.5,8.5v.5h-5v-.5c0-1.379,1.121-2.5,2.5-2.5s2.5,1.121,2.5,2.5ZM1,23v-12h15v12H1Z"/>
</svg>
