<?xml version="1.0" encoding="UTF-8"?>
<svg xmlns="http://www.w3.org/2000/svg" id="Layer_1" data-name="Layer 1" viewBox="0 0 24 24">
  <path d="m18.971,12c-1.285-3.057-3.052-4.931-4.328-5.974-.808-.662-1.824-1.026-2.862-1.026h-3.395L7.068,0H1.679l1.317,5H0v1h11.78c.808,0,1.6.284,2.229.8,1.133.926,2.683,2.562,3.869,5.2h-3.031l-3,2H0v1h12.151l3-2h7.837c-.262,5.559-4.866,10-10.488,10H0v1h12.5c6.341,0,11.5-5.159,11.5-11.5v-.5h-5.029ZM2.976,1h3.321l1.054,4h-3.321L2.976,1Zm9.024,9H0v-1h12v1ZM3,20c-.552,0-1-.448-1-1s.448-1,1-1,1,.448,1,1-.448,1-1,1Zm4,0c-.552,0-1-.448-1-1s.448-1,1-1,1,.448,1,1-.448,1-1,1Zm4,0c-.552,0-1-.448-1-1s.448-1,1-1,1,.448,1,1-.448,1-1,1Z"/>
</svg>
