<?xml version="1.0" encoding="UTF-8"?>
<svg xmlns="http://www.w3.org/2000/svg" id="Layer_1" data-name="Layer 1" viewBox="0 0 24 24">
  <path d="m24,10v-1h-2.639l-1.43-4.291c-.342-1.022-1.295-1.709-2.372-1.709h-1.198l-.43-1.291c-.342-1.022-1.295-1.709-2.372-1.709h-3.117c-1.077,0-2.03.687-2.372,1.709l-.43,1.291h-1.198c-1.077,0-2.03.687-2.372,1.709l-1.43,4.291H0v1h2.306l-.725,2.176c-.925.367-1.581,1.27-1.581,2.324v5.5h2v4h5v-4h10v4h5v-4h2v-5.5c0-1.054-.656-1.957-1.581-2.324l-.725-2.176h2.306ZM9.019,2.026c.204-.614.776-1.026,1.423-1.026h3.117c.646,0,1.219.412,1.423,1.026l.325.974h-6.612l.325-.974Zm-4,3c.204-.614.776-1.026,1.423-1.026h11.117c.646,0,1.219.412,1.423,1.026l2.325,6.974H2.694l2.325-6.974Zm.981,17.974h-3v-3h3v3Zm15,0h-3v-3h3v3Zm2-8.5v4.5H1v-4.5c0-.827.673-1.5,1.5-1.5h1.5v3h1v-3h14v3h1v-3h1.5c.827,0,1.5.673,1.5,1.5Z"/>
</svg>
